<?xml version="1.0" standalone="no"?><!DOCTYPE svg PUBLIC "-//W3C//DTD SVG 1.1//EN" "http://www.w3.org/Graphics/SVG/1.1/DTD/svg11.dtd"><svg t="1559801834334" class="icon" style="" viewBox="0 0 1024 1024" version="1.1" xmlns="http://www.w3.org/2000/svg" p-id="2062" xmlns:xlink="http://www.w3.org/1999/xlink" width="512" height="512"><defs><style type="text/css"></style></defs><path d="M486.4 486.4v102.4H341.3504c-18.8928 0-34.1504 11.4688-34.1504 25.6s15.2576 25.6 34.1504 25.6H486.4v117.76c0 19.8144 11.4688 35.84 25.6 35.84s25.6-16.0256 25.6-35.84v-117.76h145.0496c18.8928 0 34.1504-11.4688 34.1504-25.6s-15.2576-25.6-34.1504-25.6H537.6v-102.4h145.0496c18.8928 0 34.1504-11.4688 34.1504-25.6s-15.2576-25.6-34.1504-25.6h-134.4512l135.5264-135.4752a25.6 25.6 0 1 0-36.2496-36.2496L512 399.0016 376.5248 263.4752a25.6 25.6 0 1 0-36.2496 36.2496L475.8016 435.2H341.3504C322.4576 435.2 307.2 446.6688 307.2 460.8s15.2576 25.6 34.1504 25.6H486.4zM512 1024C229.2224 1024 0 794.7776 0 512S229.2224 0 512 0s512 229.2224 512 512-229.2224 512-512 512z" p-id="2063" fill="#161d2a"></path></svg>